<svg xmlns="http://www.w3.org/2000/svg" width="44" height="44" viewBox="0 0 44 44">
    <g fill="none" fill-rule="evenodd">
        <rect width="44" height="44" fill="#325497" rx="6"/>
        <path fill="#FFF" d="M23.816 22.824s-.123 0-.368-.118c-.245.823-1.84 1.412-3.678 1.412-1.84 0-3.31-.589-3.556-1.412-6.988 1.647-6.498 7.882-6.498 7.882 10.176 2.941 20.597 0 20.597 0s.49-6.117-6.497-7.764zM24.796 17.294c0-3.882-2.206-5.294-4.781-5.294-2.575 0-4.782 1.412-4.782 5.294 0 2.941 2.207 5.294 4.782 5.294s4.781-2.353 4.781-5.294zM33.478 19.25h-2.625v-2.625c0-.375-.25-.625-.625-.625h-.25c-.375 0-.625.25-.625.625v2.625h-2.625c-.375 0-.625.25-.625.625v.25c0 .375.25.625.625.625h2.625v2.625c0 .375.25.625.625.625h.25c.375 0 .625-.25.625-.625V20.75h2.625c.375 0 .625-.25.625-.625v-.25c0-.25-.25-.625-.625-.625z"/>
    </g>
</svg>
