<?xml version="1.0" encoding="UTF-8"?>
<svg width="16px" height="16px" viewBox="0 0 16 16" version="1.1" xmlns="http://www.w3.org/2000/svg" xmlns:xlink="http://www.w3.org/1999/xlink">
    <title>Slice 32</title>
    <g id="Page-1" stroke="none" stroke-width="1" fill="none" fill-rule="evenodd">
        <g id="Slice" transform="translate(-44.000000, -181.000000)" fill="#FFFFFF" fill-rule="nonzero">
            <g id="Path" transform="translate(44.000000, 181.000000)">
                <path d="M10.7478094,8.79686275 C10.7478094,8.79686275 10.6543994,8.79686275 10.4675794,8.70722689 C10.2807594,9.33467787 9.06642944,9.78285714 7.66527951,9.78285714 C6.26412958,9.78285714 5.14320963,9.33467787 4.95638964,8.70722689 C-0.36798011,9.96212885 0.00565987192,14.7128291 0.00565987192,14.7128291 C7.7586895,16.9537255 15.6985391,14.7128291 15.6985391,14.7128291 C15.6985391,14.7128291 16.0721791,10.0517647 10.7478094,8.79686275 Z"></path>
                <path d="M11.4950893,4.03361345 C11.4950893,1.07563025 9.81370941,1.13686838e-13 7.8520995,1.13686838e-13 C5.89048959,1.13686838e-13 4.20910967,1.07563025 4.20910967,4.03361345 C4.20910967,6.2745098 5.89048959,8.06722689 7.8520995,8.06722689 C9.81370941,8.06722689 11.4950893,6.2745098 11.4950893,4.03361345 Z"></path>
            </g>
        </g>
    </g>
</svg>