<?xml version="1.0" encoding="UTF-8"?>
<svg width="26px" height="23px" viewBox="0 0 26 23" version="1.1" xmlns="http://www.w3.org/2000/svg" xmlns:xlink="http://www.w3.org/1999/xlink">
    <title>Slice 37</title>
    <g id="Page-1" stroke="none" stroke-width="1" fill="none" fill-rule="evenodd">
        <g id="Slice" transform="translate(-204.000000, -183.000000)" fill="#FFFFFF" fill-rule="nonzero">
            <g id="Slice-37" transform="translate(204.000000, 183.000000)">
                <path d="M23.79,0.0509996299 C24.31,-0.0790003701 24.83,0.0509996299 25.22,0.31099963 C25.61,0.70099963 26,1.09099963 26,1.61099963 L26,1.61099963 L26,17.9909996 C26,18.5109996 25.74,19.0309996 25.35,19.2909996 C24.96,19.5509996 24.44,19.6809996 23.92,19.5509996 L23.92,19.5509996 L17.42,17.6009996 L17.42,21.2409996 C17.42,21.6309996 17.16,22.0209996 16.77,22.2809996 C16.38,22.5409996 15.86,22.6709996 15.47,22.5409996 L15.47,22.5409996 L6.89,20.2009996 C6.24,20.0709996 5.85,19.5509996 5.85,18.9009996 L5.85,18.9009996 L5.85,14.2209996 L5.2,14.0909996 C5.07,14.0909996 4.94,14.0909996 4.81,13.8309996 L4.81,13.8309996 L1.56,13.7009996 C0.78,13.7009996 3.90798505e-14,12.9209996 3.90798505e-14,12.1409996 L3.90798505e-14,12.1409996 L3.90798505e-14,7.33099963 C3.90798505e-14,6.55099963 0.78,5.77099963 1.56,5.77099963 L1.56,5.77099963 L4.81,5.64099963 L4.81,5.64099963 L5.2,5.64099963 Z M8.71,15.2609996 L8.71,17.8609996 L13.91,19.2909996 L13.91,16.8209996 L8.71,15.2609996 Z" id="Combined-Shape"></path>
            </g>
        </g>
    </g>
</svg>