<svg xmlns="http://www.w3.org/2000/svg" width="44" height="44" viewBox="0 0 44 44">
    <g fill="none" fill-rule="evenodd">
        <rect width="44" height="44" fill="#325497" rx="6"/>
        <path fill="#FFF" fill-rule="nonzero" d="M32.79 11.051c.52-.13 1.04 0 1.43.26.39.39.78.78.78 1.3v16.38c0 .52-.26 1.04-.65 1.3s-.91.39-1.43.26l-6.5-1.95v3.64c0 .39-.26.78-.65 1.04s-.91.39-1.3.26l-8.58-2.34c-.65-.13-1.04-.65-1.04-1.3v-4.68l-.65-.13c-.13 0-.26 0-.39-.26l-3.25-.13c-.78 0-1.56-.78-1.56-1.56v-4.81c0-.78.78-1.56 1.56-1.56l3.25-.13h.39zm-15.08 15.21v2.6l5.2 1.43v-2.47l-5.2-1.56z"/>
    </g>
</svg>
