<?xml version="1.0" encoding="UTF-8"?>
<svg width="16px" height="14px" viewBox="0 0 16 14" version="1.1" xmlns="http://www.w3.org/2000/svg" xmlns:xlink="http://www.w3.org/1999/xlink">
    <title>Slice 35</title>
    <g id="Page-1" stroke="none" stroke-width="1" fill="none" fill-rule="evenodd">
        <g id="Slice" transform="translate(-124.000000, -182.000000)" fill="#FFFFFF" fill-rule="nonzero">
            <g id="Group" transform="translate(124.000000, 182.000000)">
                <path d="M0.384152381,4.89179429 L0.384152381,12.113859 C0.384152381,12.8053333 0.921965714,13.2663162 1.53660952,13.2663162 L14.52096,13.2663162 C15.2124343,13.2663162 15.6734171,12.7285029 15.6734171,12.113859 L15.6734171,4.89179429 L0.384152381,4.89179429 Z M14.52096,6.65889524 L11.6014019,10.5772495 C11.447741,10.7309105 11.2172495,10.807741 11.0635886,10.65408 L8.60501333,8.88697905 L5.1476419,11.4223848 C4.99398095,11.4992152 4.76348952,11.4992152 4.60982857,11.3455543 L3.61103238,10.2699276 L2.07442286,11.9601981 C1.99759238,12.0370286 1.9207619,12.113859 1.76710095,12.113859 C1.69027048,12.113859 1.61344,12.113859 1.53660952,12.0370286 C1.38294857,11.8833676 1.38294857,11.6528762 1.53660952,11.4992152 L3.38054095,9.50162286 C3.45737143,9.3479619 3.5342019,9.3479619 3.68786286,9.3479619 C3.76469333,9.3479619 3.84152381,9.3479619 3.91835429,9.50162286 L4.99398095,10.65408 L8.45135238,8.11867429 C8.60501333,8.04184381 8.75867429,8.04184381 8.91233524,8.11867429 L11.29408,9.80894476 L13.9831467,6.19791238 C14.1368076,6.04425143 14.367299,5.96742095 14.52096,6.1210819 C14.674621,6.27474286 14.674621,6.50523429 14.52096,6.65889524 Z" id="Shape"></path>
                <path d="M15.7502476,2.20272762 C15.7502476,1.51125333 15.2124343,0.97344 14.5977905,0.97344 L13.8294857,0.97344 L13.8294857,0.742948571 C13.8294857,0.35879619 13.5221638,0.0514742857 13.1380114,0.0514742857 C12.753859,0.0514742857 12.4465371,0.35879619 12.4465371,0.742948571 L12.4465371,1.05027048 L10.5257752,1.05027048 L10.5257752,0.742948571 C10.5257752,0.35879619 10.2184533,0.0514742857 9.83430095,0.0514742857 C9.45014857,0.0514742857 9.14282667,0.35879619 9.14282667,0.742948571 L9.14282667,1.05027048 L7.22206476,1.05027048 L7.22206476,0.742948571 C7.22206476,0.35879619 6.91474286,0.0514742857 6.53059048,0.0514742857 C6.1464381,0.0514742857 5.83911619,0.35879619 5.83911619,0.742948571 L5.83911619,1.05027048 L3.84152381,1.05027048 L3.84152381,0.742948571 C3.84152381,0.35879619 3.5342019,0.0514742857 3.15004952,0.0514742857 C2.76589714,0.0514742857 2.45857524,0.35879619 2.45857524,0.742948571 L2.45857524,1.05027048 L1.53660952,1.05027048 C0.845135238,1.05027048 0.384152381,1.58808381 0.384152381,2.2795581 L0.384152381,4.20032 L15.7502476,4.20032 L15.7502476,2.20272762 Z M2.84272762,0.742948571 C2.84272762,0.589287619 2.99638857,0.435626667 3.15004952,0.435626667 C3.30371048,0.435626667 3.45737143,0.589287619 3.45737143,0.742948571 L3.45737143,1.05027048 L2.84272762,1.05027048 L2.84272762,0.742948571 Z M3.68786286,3.12469333 C3.30371048,3.12469333 2.99638857,2.81737143 2.99638857,2.43321905 C2.99638857,2.12589714 3.22688,1.89540571 3.45737143,1.81857524 L3.45737143,1.89540571 C3.45737143,1.89540571 3.45737143,1.89540571 3.45737143,1.89540571 L3.45737143,2.35638857 C3.45737143,2.43321905 3.5342019,2.51004952 3.68786286,2.51004952 C3.76469333,2.51004952 3.84152381,2.43321905 3.84152381,2.2795581 L3.84152381,1.89540571 C3.84152381,1.89540571 3.84152381,1.89540571 3.84152381,1.89540571 L3.84152381,1.89540571 C4.14884571,1.97223619 4.30250667,2.20272762 4.30250667,2.51004952 C4.30250667,2.81737143 3.99518476,3.12469333 3.68786286,3.12469333 Z M6.1464381,0.742948571 C6.1464381,0.589287619 6.30009905,0.435626667 6.45376,0.435626667 C6.60742095,0.435626667 6.7610819,0.589287619 6.7610819,0.742948571 L6.7610819,1.05027048 L6.1464381,1.05027048 L6.1464381,0.742948571 Z M6.99157333,3.12469333 C6.60742095,3.12469333 6.30009905,2.81737143 6.30009905,2.43321905 C6.30009905,2.12589714 6.53059048,1.89540571 6.7610819,1.81857524 L6.7610819,1.89540571 C6.7610819,1.89540571 6.7610819,1.89540571 6.7610819,1.89540571 L6.7610819,2.35638857 C6.7610819,2.43321905 6.83791238,2.51004952 6.99157333,2.51004952 C7.06840381,2.51004952 7.22206476,2.43321905 7.22206476,2.35638857 L7.22206476,1.89540571 C7.22206476,1.89540571 7.22206476,1.89540571 7.22206476,1.89540571 L7.22206476,1.89540571 C7.52938667,1.97223619 7.68304762,2.20272762 7.68304762,2.51004952 C7.60621714,2.81737143 7.29889524,3.12469333 6.99157333,3.12469333 Z M9.45014857,0.742948571 C9.45014857,0.589287619 9.60380952,0.435626667 9.75747048,0.435626667 C9.91113143,0.435626667 10.0647924,0.589287619 10.0647924,0.742948571 L10.0647924,1.05027048 L9.45014857,1.05027048 L9.45014857,0.742948571 L9.45014857,0.742948571 Z M10.2952838,3.12469333 C9.91113143,3.12469333 9.60380952,2.81737143 9.60380952,2.43321905 C9.60380952,2.12589714 9.83430095,1.89540571 10.0647924,1.81857524 L10.0647924,1.89540571 C10.0647924,1.89540571 10.0647924,1.89540571 10.0647924,1.89540571 L10.0647924,2.35638857 C10.0647924,2.43321905 10.1416229,2.51004952 10.2952838,2.51004952 C10.3721143,2.51004952 10.5257752,2.43321905 10.5257752,2.35638857 L10.5257752,1.89540571 C10.5257752,1.89540571 10.5257752,1.89540571 10.5257752,1.89540571 L10.5257752,1.89540571 C10.8330971,1.97223619 10.9867581,2.20272762 10.9867581,2.51004952 C10.9099276,2.81737143 10.6026057,3.12469333 10.2952838,3.12469333 Z M12.753859,0.742948571 C12.753859,0.589287619 12.90752,0.435626667 13.061181,0.435626667 C13.2148419,0.435626667 13.3685029,0.589287619 13.3685029,0.742948571 L13.3685029,1.05027048 L12.753859,1.05027048 L12.753859,0.742948571 L12.753859,0.742948571 Z M13.5221638,3.12469333 C13.1380114,3.12469333 12.8306895,2.81737143 12.8306895,2.43321905 C12.8306895,2.12589714 13.061181,1.89540571 13.2916724,1.81857524 L13.2916724,1.89540571 C13.2916724,1.89540571 13.2916724,1.89540571 13.2916724,1.89540571 L13.2916724,2.35638857 C13.2916724,2.43321905 13.3685029,2.51004952 13.5221638,2.51004952 C13.5989943,2.51004952 13.7526552,2.43321905 13.7526552,2.35638857 L13.7526552,1.89540571 C13.7526552,1.89540571 13.7526552,1.89540571 13.7526552,1.89540571 L13.7526552,1.89540571 C14.0599771,1.97223619 14.2136381,2.20272762 14.2136381,2.51004952 C14.2136381,2.81737143 13.9063162,3.12469333 13.5221638,3.12469333 Z" id="Shape"></path>
            </g>
        </g>
    </g>
</svg>