<svg xmlns="http://www.w3.org/2000/svg" width="23" height="26" viewBox="0 0 23 26">
    <g fill="none" fill-rule="evenodd">
        <path fill="#F2F2F7" d="M0 0H375V170H0z" transform="translate(-73 -89)"/>
        <path fill="#FFF" fill-rule="nonzero" d="M87.5 92.5H85V89h-1v3.5h-2.5c-.132 0-.258.053-.35.147-.092.094-.143.221-.14.353v12.82c-.003.132.048.259.14.353.092.094.218.147.35.147H84v4.16h1v-4.16h2.5c.132 0 .258-.053.35-.147.092-.094.143-.221.14-.353V93c.003-.132-.048-.259-.14-.353-.092-.094-.218-.147-.35-.147zM76.96 94v4.18h2.47c.132 0 .258.053.35.147.092.094.143.221.14.353v11.66c0 .272-.218.495-.49.5h-2.46V115h-1v-4.16H73.5c-.276 0-.5-.224-.5-.5V98.68c0-.276.224-.5.5-.5h2.46V94h1zm16.07-1.11V96h2.47c.269 0 .49.212.5.48v12.59c0 .276-.224.5-.5.5h-2.46v4.3h-1v-4.3h-2.47c-.132 0-.258-.053-.35-.147-.092-.094-.143-.221-.14-.353V96.5c0-.272.218-.495.49-.5h2.46v-3.11h1zm-6.06.61l.03 11.82h-4.97V93.5h4.94z" transform="translate(-73 -89)"/>
    </g>
</svg>
