<svg xmlns="http://www.w3.org/2000/svg" width="14" height="17" viewBox="0 0 14 17">
    <g fill="#FFF">
        <path d="M.213 12.69l-.212 3.713c-.006.078.029.153.092.2.064.046.147.056.22.026l3.343-1.402c.074-.032.127-.1.137-.18.01-.081-.023-.16-.088-.21l-3.13-2.316c-.068-.05-.157-.059-.232-.023-.076.035-.125.11-.13.193zM12.134 5.055l-4.25-3.244.723-.963C9.344-.096 10.7-.28 11.66.437l.786.623c.467.353.774.878.851 1.458.077.58-.081 1.168-.44 1.63l-.723.907zM8.862 1.676l3.145 2.394.29-.382c.244-.314.35-.712.298-1.105-.054-.391-.26-.745-.574-.985l-.793-.595C10.58.52 9.664.643 9.166 1.28l-.304.396zM11.164 5.629l-3.62-2.727c-.2-.15-.483-.112-.637.085l-5.929 7.72c-.075.095-.11.217-.093.337.016.12.08.23.178.301l3.598 2.699c.199.148.48.11.63-.085l5.958-7.693c.074-.095.106-.216.09-.336-.016-.12-.079-.228-.175-.301z"/>
    </g>
</svg>
