<?xml version="1.0" encoding="UTF-8"?>
<svg width="16px" height="14px" viewBox="0 0 16 14" version="1.1" xmlns="http://www.w3.org/2000/svg" xmlns:xlink="http://www.w3.org/1999/xlink">
    <title>Slice 31</title>
    <g id="Page-1" stroke="none" stroke-width="1" fill="none" fill-rule="evenodd">
        <g id="Slice" transform="translate(-24.000000, -182.000000)" fill="#FFFFFF" fill-rule="nonzero">
            <g id="Combined-Shape" transform="translate(24.000000, 182.000000)">
                <path d="M14.64,0.0313843876 C14.96,-0.0486156124 15.28,0.0313843876 15.52,0.191384388 C15.76,0.431384388 16,0.671384388 16,0.991384388 L16,0.991384388 L16,11.0713844 C16,11.3913844 15.84,11.7113844 15.6,11.8713844 C15.36,12.0313844 15.04,12.1113844 14.72,12.0313844 L14.72,12.0313844 L10.72,10.8313844 L10.72,13.0713844 C10.72,13.3113844 10.56,13.5513844 10.32,13.7113844 C10.08,13.8713844 9.76,13.9513844 9.52,13.8713844 L9.52,13.8713844 L4.24,12.4313844 C3.84,12.3513844 3.6,12.0313844 3.6,11.6313844 L3.6,11.6313844 L3.6,8.75138439 L3.2,8.67138439 C3.12,8.67138439 3.04,8.67138439 2.96,8.51138439 L2.96,8.51138439 L0.96,8.43138439 C0.48,8.43138439 2.30926389e-14,7.95138439 2.30926389e-14,7.47138439 L2.30926389e-14,7.47138439 L2.30926389e-14,4.51138439 C2.30926389e-14,4.03138439 0.48,3.55138439 0.96,3.55138439 L0.96,3.55138439 L2.96,3.47138439 L2.96,3.47138439 L3.2,3.47138439 Z M5.36,9.39138439 L5.36,10.9913844 L8.56,11.8713844 L8.56,10.3513844 L5.36,9.39138439 Z"></path>
            </g>
        </g>
    </g>
</svg>