<svg xmlns="http://www.w3.org/2000/svg" width="30" height="26" viewBox="0 0 30 26">
    <g fill="none" fill-rule="evenodd">
        <path fill="#F2F2F7" d="M0 0H375V170H0z" transform="translate(-209 -89)"/>
        <path fill="#F2E205" fill-rule="nonzero" d="M237.187 89c-.835.005-1.58.522-1.873 1.299-.292.776-.072 1.652.554 2.2l-6.312 12.549c-.797-.172-1.62.152-2.083.82l-7.4-2.68c.005-.063.005-.127 0-.19 0-1.104-.901-2-2.013-2-1.112 0-2.013.896-2.013 2 .005.474.18.932.493 1.29l-4.822 6.839c-.825-.306-1.754-.044-2.295.646-.54.691-.565 1.65-.063 2.369.503.718 1.417 1.028 2.257.766.84-.263 1.411-1.037 1.41-1.911-.005-.475-.18-.932-.494-1.29l4.822-6.84c.226.086.464.13.705.13.664 0 1.286-.325 1.661-.87l7.4 2.68c-.006.064-.006.127 0 .19-.006.925.627 1.732 1.53 1.953.904.222 1.842-.2 2.27-1.021.428-.821.234-1.826-.469-2.431l6.312-12.499c.72.075 1.424-.236 1.85-.818.425-.58.505-1.343.21-2-.293-.656-.918-1.106-1.637-1.181z" transform="translate(-209 -89)"/>
    </g>
</svg>
