<?xml version="1.0" encoding="UTF-8"?>
<svg width="20px" height="16px" viewBox="0 0 20 16" version="1.1" xmlns="http://www.w3.org/2000/svg" xmlns:xlink="http://www.w3.org/1999/xlink">
    <title>Slice 30</title>
    <g id="Page-1" stroke="none" stroke-width="1" fill="none" fill-rule="evenodd">
        <g id="Slice" transform="translate(0.000000, -181.000000)" fill="#FFFFFF" fill-rule="nonzero">
            <g id="Slice-30" transform="translate(0.000000, 181.000000)">
                <path d="M9.18548974,14.647693 C6.84225256,12.3044558 1.59340128,14.272775 1.59340128,14.272775 L1.59340128,1.24437629 L1.31221282,1.24437629 C0.468647436,1.24437629 0.468647436,1.24437629 0.468647436,2.27540065 L0.468647436,14.1790455 C0.468647436,14.7414224 0.843565385,15.2100699 1.31221282,15.2100699 L8.24819487,15.2100699 C8.24819487,15.2100699 8.62311282,15.5849878 8.71684231,15.6787173 C9.18548974,16.0536353 10.0290551,15.9599058 10.5914321,15.6787173 C10.778891,15.5849878 11.0600795,15.2100699 11.0600795,15.2100699 L18.3709795,15.2100699 C18.8396269,15.2100699 19.2145449,14.7414224 19.2145449,14.1790455 L19.2145449,2.27540065 C19.2145449,1.24437629 19.2145449,1.24437629 18.3709795,1.24437629 L18.089791,1.24437629 L18.089791,14.1790455 C18.089791,14.1790455 12.4660218,12.3044558 10.1227846,14.647693" id="Path"></path>
                <g id="Group" transform="translate(1.874590, 0.000000)">
                    <path d="M7.49835897,13.9656936 C7.49835897,13.9656936 7.49835897,5.15512179 7.49835897,3.37426154 C7.49835897,3.18680256 7.49835897,3.09307308 7.40462949,2.9056141 C6.93598205,1.87458974 5.15512179,1.21848333 3.37426154,0.843565385 C3.28053205,0.843565385 3.28053205,0.843565385 3.18680256,0.843565385 C1.59340128,0.468647436 0.187458974,0.374917949 0.187458974,0.374917949 L0.187458974,0.749835897 L0.187458974,0.749835897 L0.281188462,13.3095872 C0.281188462,13.4033167 5.34258077,11.7161859 7.49835897,13.9656936 Z" id="Path"></path>
                    <path d="M8.24819487,2.81188462 C8.15446538,2.9056141 8.15446538,3.09307308 8.15446538,3.28053205 C8.15446538,5.06139231 8.15446538,13.9656936 8.15446538,13.9656936 C10.4039731,11.7161859 15.7465538,13.3095872 15.7465538,13.3095872 L15.8402833,0.937294872 L15.8402833,0.749835897 L15.8402833,0.374917949 C15.8402833,0.374917949 14.2468821,0.468647436 12.6534808,0.749835897 C12.4660218,0.749835897 12.2785628,0.843565385 12.0911038,0.843565385 C10.3102436,1.21848333 8.62311282,1.87458974 8.24819487,2.81188462 Z" id="Path"></path>
                </g>
            </g>
        </g>
    </g>
</svg>