<svg xmlns="http://www.w3.org/2000/svg" width="44" height="44" viewBox="0 0 44 44">
    <g fill="none" fill-rule="evenodd">
        <rect width="44" height="44" fill="#325497" rx="6"/>
        <path fill="#FFF" fill-rule="nonzero" d="M20.482 30.043c-2.93-2.93-9.49-.469-9.49-.469V13.29h-.352c-1.054 0-1.054 0-1.054 1.289v14.88c0 .702.468 1.288 1.054 1.288h8.67l.586.586c.586.468 1.64.351 2.343 0 .235-.117.586-.586.586-.586h9.139c.586 0 1.054-.586 1.054-1.289v-14.88c0-1.288 0-1.288-1.054-1.288h-.352v16.168s-7.03-2.343-9.959.586"/>
        <path fill="#FFF" fill-rule="nonzero" d="M20.716 29.457v-13.24c0-.233 0-.35-.117-.585-.586-1.289-2.812-2.109-5.038-2.578h-.234c-1.992-.468-3.75-.585-3.75-.585v.468l.118 15.7c0 .117 6.326-1.992 9.021.82zM21.653 15.515c-.117.117-.117.351-.117.586v13.356c2.812-2.812 9.49-.82 9.49-.82l.118-15.465V12.469s-1.992.117-3.984.468c-.234 0-.469.117-.703.117-2.226.47-4.335 1.29-4.804 2.46z"/>
    </g>
</svg>
