<?xml version="1.0" encoding="UTF-8"?>
<svg width="16px" height="17px" viewBox="0 0 16 17" version="1.1" xmlns="http://www.w3.org/2000/svg" xmlns:xlink="http://www.w3.org/1999/xlink">
    <title>Shape</title>
    <g id="Page-1" stroke="none" stroke-width="1" fill="none" fill-rule="evenodd">
        <g id="Slice" transform="translate(-144.000000, -180.000000)" fill="#FFFFFF" fill-rule="nonzero">
            <g id="Slice-37" transform="translate(144.000000, 180.000000)">
                <path d="M14.9836066,7.3442623 L14.9836066,8.68852459 L13.8688525,8.68852459 L13.8688525,7.86885246 C13.8688525,6.892 13.3251148,6.04 12.5245902,5.59885246 L12.5245902,5.59868852 C10.8020656,4.65321311 8.68852459,5.9037377 8.68852459,7.86885246 L8.68852459,8.68852459 L7.70491803,8.68852459 L7.70491803,7.86885246 C7.70491803,5.3735082 10.2055738,3.65327869 12.5245902,4.51901639 L12.5245902,8.8817842e-15 L1.77635684e-15,8.8817842e-15 L1.77635684e-15,11.507541 L6.61704918,11.5163934 C6.85016393,13.7059016 8.59639344,15.4495082 10.7868852,15.6790164 L10.7868852,16.7868852 L11.7704918,16.7868852 L11.7704918,15.6790164 C14.0396721,15.4413115 15.8321311,13.5786885 15.9596721,11.2786885 C15.9714098,11.2786885 15.9672131,11.581377 15.9672131,7.3442623 L14.9836066,7.3442623 Z M2.09836066,2.13114754 L10.4918033,2.13114754 L10.4918033,3.1147541 L2.09836066,3.1147541 L2.09836066,2.13114754 Z M2.09836066,4.2295082 L7.18032787,4.2295082 L7.18032787,5.21311475 L2.09836066,5.21311475 L2.09836066,4.2295082 Z M5.50819672,9.40983607 L2.09836066,9.40983607 L2.09836066,8.42622951 L5.50819672,8.42622951 L5.50819672,9.40983607 Z M5.50819672,7.31147541 L2.09836066,7.31147541 L2.09836066,6.32786885 L5.50819672,6.32786885 L5.50819672,7.31147541 Z M14.9836066,11.0163934 C14.9836066,13.0593443 13.3216393,14.7213115 11.2786885,14.7213115 C9.40590164,14.7213115 7.85311475,13.3245902 7.60786885,11.5177049 C7.56272131,11.190459 7.57377049,11.0962951 7.57377049,9.67213115 L8.68852459,9.67213115 C8.68852459,10.0944262 8.67311475,11.5193443 8.73793443,11.5193443 C8.9727541,12.7076066 10.0225574,13.6065574 11.2786885,13.6065574 C12.706918,13.6065574 13.8688525,12.444623 13.8688525,11.0163934 L13.8688525,9.67213115 L14.9836066,9.67213115 L14.9836066,11.0163934 Z" id="Shape"></path>
            </g>
        </g>
    </g>
</svg>