<?xml version="1.0" encoding="UTF-8"?>
<svg width="26px" height="25px" viewBox="0 0 26 25" version="1.1" xmlns="http://www.w3.org/2000/svg" xmlns:xlink="http://www.w3.org/1999/xlink">
    <title>Shape</title>
    <g id="Page-1" stroke="none" stroke-width="1" fill="none" fill-rule="evenodd">
        <g id="Slice" transform="translate(-234.000000, -182.000000)" fill="#FFFFFF" fill-rule="nonzero">
            <g id="Slice-45" transform="translate(234.000000, 182.000000)">
                <path d="M24.2881992,4.08562073e-14 L1.82814403,4.08562073e-14 C0.783490298,4.08562073e-14 0,0.783490298 0,1.82814403 L0,18.6731854 C0,19.7178392 0.783490298,20.5013295 1.82814403,20.5013295 L6.92083097,20.5013295 L6.3985041,24.0270358 C6.26792239,24.418781 6.65966754,24.6799444 7.05141269,24.418781 L14.6251522,20.3707478 L24.1576175,20.3707478 C25.2022713,20.3707478 25.9857616,19.5872575 25.9857616,18.5426037 L25.9857616,1.82814403 C26.1163433,0.783490298 25.332853,4.08562073e-14 24.2881992,4.08562073e-14 Z M12.5358448,14.8863157 L5.48443209,14.8863157 C5.09268694,14.8863157 4.83152351,14.6251522 4.83152351,14.2334071 C4.83152351,13.8416619 5.09268694,13.5804985 5.48443209,13.5804985 L12.5358448,13.5804985 C12.9275899,13.5804985 13.1887534,13.8416619 13.1887534,14.2334071 C13.1887534,14.6251522 12.9275899,14.8863157 12.5358448,14.8863157 Z M20.6319112,11.0994459 L5.48443209,11.0994459 C5.09268694,11.0994459 4.83152351,10.8382825 4.83152351,10.4465373 C4.83152351,10.0547922 5.09268694,9.79362873 5.48443209,9.79362873 L20.5013295,9.79362873 C20.8930746,9.79362873 21.1542381,10.0547922 21.1542381,10.4465373 C21.1542381,10.8382825 20.8930746,11.0994459 20.6319112,11.0994459 Z M20.6319112,7.31257612 L5.48443209,7.31257612 C5.09268694,7.31257612 4.83152351,7.05141269 4.83152351,6.65966754 C4.83152351,6.26792239 5.09268694,6.00675895 5.48443209,6.00675895 L20.5013295,6.00675895 C20.8930746,6.00675895 21.1542381,6.26792239 21.1542381,6.65966754 C21.1542381,7.05141269 20.8930746,7.31257612 20.6319112,7.31257612 Z" id="Shape"></path>
            </g>
        </g>
    </g>
</svg>