<svg xmlns="http://www.w3.org/2000/svg" width="44" height="44" viewBox="0 0 44 44">
    <g fill="none" fill-rule="evenodd">
        <rect width="44" height="44" fill="#325497" rx="6"/>
        <path fill="#FFF" fill-rule="nonzero" d="M33.288 10h-22.46C9.783 10 9 10.783 9 11.828v16.845c0 1.045.783 1.828 1.828 1.828h5.093l-.522 3.526c-.131.392.26.653.652.392l7.574-4.048h9.533c1.044 0 1.828-.784 1.828-1.828V11.828c.13-1.045-.653-1.828-1.698-1.828zM21.536 24.886h-7.052c-.391 0-.652-.26-.652-.653 0-.391.26-.653.652-.653h7.052c.392 0 .653.262.653.653 0 .392-.261.653-.653.653zm8.096-3.787H14.484c-.391 0-.652-.26-.652-.652s.26-.653.652-.653h15.017c.392 0 .653.26.653.653 0 .391-.26.652-.522.652zm0-3.786H14.484c-.391 0-.652-.262-.652-.653 0-.392.26-.653.652-.653h15.017c.392 0 .653.26.653.653 0 .391-.26.653-.522.653z"/>
    </g>
</svg>
