<?xml version="1.0" encoding="UTF-8"?>
<svg width="50px" height="50px" viewBox="0 0 50 50" version="1.1" xmlns="http://www.w3.org/2000/svg" xmlns:xlink="http://www.w3.org/1999/xlink">
    <title>Slice 24</title>
    <g id="Page-1" stroke="none" stroke-width="1" fill="none" fill-rule="evenodd">
        <g id="Slice" transform="translate(0.000000, -99.000000)">
            <g id="Slice-24" transform="translate(0.000000, 99.000000)">
                <path d="M25,0 C11.19375,0 0,11.19375 0,25 C0,38.80625 11.19375,50 25,50 C38.80625,50 50,38.80625 50,25 C50,11.19375 38.80625,0 25,0" id="Path" fill="#F2E205"></path>
                <path d="M29.8485385,6 L28.1706923,7.67942308 L30.8893077,10.3885769 L18.3653846,10.3885769 C17.0581154,10.3885769 16,11.4466923 16,12.7539615 L16,16.3020385 L18.3653846,16.3020385 L18.3653846,12.7539615 L30.8893077,12.7539615 L28.1801538,15.4615385 L29.8485385,17.1299231 L34.5793077,12.3991538 C35.0381923,11.9371154 35.0381923,11.1928077 34.5793077,10.7307692 L29.8485385,6 Z" id="Path" fill="#21212B"></path>
                <path d="M32.5584808,22.3759615 L20.0345577,22.3759615 L22.7421346,19.6668077 L21.07375,18 L16.3429808,22.7307692 C15.8856731,23.1928077 15.8856731,23.9371154 16.3429808,24.3975769 L21.07375,29.1283462 L22.7421346,27.4615385 L20.0345577,24.7413462 L32.5584808,24.7413462 C33.8641731,24.7413462 34.9238654,23.6816538 34.9238654,22.3759615 L34.9238654,18.8278846 L32.5584808,18.8278846 L32.5584808,22.3759615 Z" id="Path" fill="#21212B"></path>
                <text id="Text" font-family="PingFangTC-Regular, PingFang TC" font-size="10" font-weight="normal" letter-spacing="0.12" fill="#21212B">
                    <tspan x="15.38" y="43">下單</tspan>
                </text>
            </g>
        </g>
    </g>
</svg>