<?xml version="1.0" encoding="UTF-8"?>
<svg width="16px" height="17px" viewBox="0 0 16 17" version="1.1" xmlns="http://www.w3.org/2000/svg" xmlns:xlink="http://www.w3.org/1999/xlink">
    <title>Slice 11</title>
    <g id="Slice" stroke="none" stroke-width="1" fill="none" fill-rule="evenodd">
        <g transform="translate(-104.000000, -28.000000)" fill="#FFFFFF" fill-rule="nonzero" id="Slice-11">
            <g transform="translate(104.000000, 28.000000)">
                <path d="M15.8880216,7.38796563 C15.8339312,7.04744974 15.5152166,6.81547603 15.1761771,6.869802 C14.8371376,6.92412796 14.6061696,7.24423046 14.66026,7.58474635 C14.6608428,7.58847783 14.6614621,7.59217273 14.6621177,7.59586763 C15.295176,11.3387255 12.7873473,14.8883147 9.0607174,15.5241297 C5.33408754,16.1599447 1.79988846,13.6411953 1.16683017,9.89833745 C0.533771879,6.15547956 3.04163704,2.60589041 6.76823047,1.97007539 C9.06002533,1.57907476 11.3927614,2.38309907 12.9625492,4.10510417 L10.2086728,5.02663353 C9.88289184,5.13550496 9.7067064,5.48897128 9.81506937,5.81617091 C9.81510579,5.81624408 9.81514222,5.81635383 9.81517864,5.81642699 C9.92357804,6.14362662 10.2755118,6.32057928 10.6012928,6.21174443 C10.6014021,6.21170785 10.6014749,6.21167126 10.6015478,6.21167126 L14.3314194,4.96297886 C14.5853712,4.8780328 14.7566758,4.6393278 14.7566393,4.37047828 L14.7566393,0.624364493 C14.7566393,0.279531792 14.4783195,2.84217094e-14 14.1349819,2.84217094e-14 C13.7916443,2.84217094e-14 13.5133245,0.279531792 13.5133245,0.624364493 L13.5133245,2.90510393 C10.3118999,-0.153100451 5.2481985,-0.025681366 2.20325368,3.18968419 C-0.841691137,6.40504975 -0.714860932,11.4908016 2.48660009,14.5490426 C5.6880611,17.6072836 10.7517261,17.4798645 13.7967073,14.2644623 C15.5330282,12.4309152 16.3079236,9.88300911 15.8880216,7.38796563 Z"></path>
            </g>
        </g>
    </g>
</svg>