<?xml version="1.0" encoding="UTF-8"?>
<svg width="18px" height="18px" viewBox="0 0 18 18" version="1.1" xmlns="http://www.w3.org/2000/svg" xmlns:xlink="http://www.w3.org/1999/xlink">
    <title>Slice 13</title>
    <g id="Page-1" stroke="none" stroke-width="1" fill="none" fill-rule="evenodd">
        <g id="Slice" transform="translate(-148.000000, -27.000000)" fill="#FFFFFF">
            <g id="Slice-13" transform="translate(148.000000, 27.000000)">
                <path d="M6.99140706,0 C10.8526546,0 13.9828141,3.13061093 13.9828141,6.99241521 C13.9828141,8.56440198 13.464153,10.0152315 12.5886457,11.1830652 C12.6841851,11.2287146 12.7732277,11.2917543 12.8520674,11.3706054 L17.7251905,16.2444312 C18.1170761,16.6363733 18.1202345,17.2686782 17.7279603,17.6610089 L17.6584625,17.7305167 C17.2681067,18.1209288 16.6309757,18.1166891 16.2420891,17.7277465 L11.368966,12.8539206 C11.2898,12.7747433 11.2264977,12.6857569 11.1791144,12.5909214 C10.013405,13.4662312 8.56295995,13.9848304 6.99140706,13.9848304 C3.13015956,13.9848304 0,10.8542195 0,6.99241521 C0,3.13061093 3.13015956,0 6.99140706,0 Z M6.99140706,1.39848304 C3.90240906,1.39848304 1.39828141,3.90297178 1.39828141,6.99241521 C1.39828141,10.0818586 3.90240906,12.5863474 6.99140706,12.5863474 C10.0804051,12.5863474 12.5845327,10.0818586 12.5845327,6.99241521 C12.5845327,3.90297178 10.0804051,1.39848304 6.99140706,1.39848304 Z"></path>
            </g>
        </g>
    </g>
</svg>