<?xml version="1.0" encoding="UTF-8"?>
<svg width="16px" height="18px" viewBox="0 0 16 18" version="1.1" xmlns="http://www.w3.org/2000/svg" xmlns:xlink="http://www.w3.org/1999/xlink">
    <title>Slice 36</title>
    <g id="Page-1" stroke="none" stroke-width="1" fill="none" fill-rule="evenodd">
        <g id="Slice" transform="translate(-84.000000, -180.000000)" fill="#FFFFFF" fill-rule="nonzero">
            <g id="Slice-36" transform="translate(84.000000, 180.000000)">
                <path d="M14.3136096,7.16504831 L14.2703635,7.16504831 L14.2703635,6.11388878 C14.2703635,2.73728513 11.5115943,-1.13686838e-13 8.10839627,-1.13686838e-13 C4.70519829,-1.13686838e-13 1.94642906,2.73728513 1.94642906,6.11388878 L1.94642906,7.16504831 L1.68699393,7.16504831 C0.735662804,7.16504831 0.000562107386,8.00166455 0.000562107386,8.96704782 L0.000562107386,11.6485722 C-0.0233991212,12.5842274 0.721675074,13.3620033 1.66468805,13.3857776 C1.67213714,13.3859829 1.67954484,13.3861061 1.68699393,13.3861882 L3.28693358,13.3861882 C3.51355135,13.3756356 3.68864627,13.1847433 3.67796924,12.9598937 C3.67759679,12.9518047 3.67697603,12.9437157 3.67610697,12.9356678 L3.67610697,7.67987012 C3.67610697,7.42245922 3.52476636,7.16500725 3.28693358,7.16500725 L2.81126802,7.16500725 L2.81126802,6.11384772 C2.81126802,3.2111692 5.18289166,0.858050033 8.10839627,0.858050033 C11.0339009,0.858050033 13.4055245,3.2111692 13.4055245,6.11384772 L13.4055245,7.16500725 L12.929859,7.16500725 C12.6920262,7.16500725 12.5406856,7.42241816 12.5406856,7.67987012 L12.5406856,12.9356678 C12.5165588,13.1594909 12.6798593,13.3603609 12.9054425,13.3842994 C12.9135537,13.3851617 12.9217063,13.3857776 12.929859,13.3861472 L13.4271269,13.3861472 L13.3838808,13.4504896 C12.7351067,14.3059939 11.7170649,14.8070603 10.6380233,14.8019687 C10.4018045,13.6527146 9.27128146,12.9110313 8.11298987,13.145448 C7.12246827,13.3458664 6.40830779,14.2065854 6.40032071,15.2095805 C6.41215648,16.3859758 7.37673043,17.3333333 8.5624181,17.3333333 C9.14936474,17.3238893 9.70883253,17.0849148 10.1191117,16.6683107 C10.395928,16.3870434 10.5773133,16.0270623 10.6380233,15.6385849 C11.9892876,15.6436765 13.2636194,15.0154444 14.0757354,13.9438776 L14.4865525,13.3431974 C15.4162399,13.278855 16,12.6996496 16,11.8629923 L16,9.18146794 C16,8.25911651 15.3081868,7.16504831 14.3136096,7.16504831 Z" id="Path"></path>
            </g>
        </g>
    </g>
</svg>