<svg xmlns="http://www.w3.org/2000/svg" width="44" height="44" viewBox="0 0 44 44">
    <g fill="none" fill-rule="evenodd">
        <rect width="44" height="44" fill="#325497" rx="6"/>
        <path fill="#FFF" fill-rule="nonzero" d="M32.47 17.667h-1.927v-2.593c0-5.003-4.032-9.074-8.987-9.074-4.956 0-8.988 4.07-8.988 9.074v2.593h-1.926c-.355 0-.642.29-.642.648v16.204c0 1.43 1.152 2.592 2.568 2.592h17.975c1.416 0 2.568-1.163 2.568-2.593V18.315c0-.358-.287-.648-.642-.648zm-8.992 13.54c.02.182-.038.366-.16.503s-.296.216-.478.216h-2.568c-.183 0-.357-.079-.479-.216-.121-.137-.18-.32-.16-.504l.405-3.677c-.657-.483-1.05-1.247-1.05-2.085 0-1.43 1.151-2.592 2.568-2.592 1.416 0 2.568 1.163 2.568 2.592 0 .838-.394 1.602-1.051 2.085l.405 3.677zm3.213-13.54H16.42v-2.593c0-2.859 2.304-5.185 5.136-5.185 2.831 0 5.135 2.326 5.135 5.185v2.593z"/>
    </g>
</svg>
