<?xml version="1.0" encoding="UTF-8"?>
<svg width="16px" height="22px" viewBox="0 0 16 22" version="1.1" xmlns="http://www.w3.org/2000/svg" xmlns:xlink="http://www.w3.org/1999/xlink">
    <title>Slice 33</title>
    <g id="Page-1" stroke="none" stroke-width="1" fill="none" fill-rule="evenodd">
        <g id="Slice" transform="translate(-64.000000, -178.000000)" fill="#FFFFFF" fill-rule="nonzero">
            <g id="Shape" transform="translate(64.000000, 178.000000)">
                <path d="M15.5555417,8.07692308 L14.2222083,8.07692308 L14.2222083,6.28203726 C14.2222083,2.81808894 11.431,0 8,0 C4.569,0 1.77779167,2.81808894 1.77779167,6.28203726 L1.77779167,8.07692308 L0.444458333,8.07692308 C0.198791667,8.07692308 0,8.2776262 0,8.52565505 L0,19.7436178 C0,20.7335036 0.797291667,21.5384615 1.77779167,21.5384615 L14.22225,21.5384615 C15.2027083,21.5384615 16,20.7335036 16,19.7435757 L16,8.52565505 C16,8.2776262 15.8012083,8.07692308 15.5555417,8.07692308 Z M9.33075,17.4504868 C9.344625,17.5771094 9.30429167,17.7041947 9.22008333,17.7993089 C9.135875,17.894381 9.01520833,17.948732 8.88891667,17.948732 L7.111125,17.948732 C6.98483333,17.948732 6.86416667,17.894381 6.77995833,17.7993089 C6.69575,17.7042368 6.655375,17.5771514 6.66929167,17.4504868 L6.94966667,14.904994 C6.494375,14.570643 6.22225,14.0417308 6.22225,13.4615385 C6.22225,12.4716526 7.01954167,11.6666526 8.00004167,11.6666526 C8.98054167,11.6666526 9.77783333,12.4716106 9.77783333,13.4615385 C9.77783333,14.0417308 9.50570833,14.570643 9.05041667,14.904994 L9.33075,17.4504868 Z M11.5555417,8.07692308 L4.44445833,8.07692308 L4.44445833,6.28203726 C4.44445833,4.3026863 6.0395,2.69230769 8,2.69230769 C9.9605,2.69230769 11.5555417,4.3026863 11.5555417,6.28203726 L11.5555417,8.07692308 L11.5555417,8.07692308 Z"></path>
            </g>
        </g>
    </g>
</svg>