<?xml version="1.0" encoding="UTF-8"?>
<svg width="24px" height="24px" viewBox="0 0 24 24" version="1.1" xmlns="http://www.w3.org/2000/svg" xmlns:xlink="http://www.w3.org/1999/xlink">
    <title>Slice 18</title>
    <g id="Slice" stroke="none" stroke-width="1" fill="none" fill-rule="evenodd">
        <g transform="translate(-175.000000, -55.000000)" fill="#FFFFFF" id="Slice-18">
            <g transform="translate(172.000000, 54.000000)">
                <g id="Graphics-/-Tab-Bar-Icons-/-White-/-Setting">
                    <path d="M15,23.5 C9.201,23.5 4.5,18.799 4.5,13 C4.5,7.201 9.201,2.5 15,2.5 C20.799,2.5 25.5,7.201 25.5,13 C25.5,18.799 20.799,23.5 15,23.5 M15,1 C8.373,1 3,6.373 3,13 C3,19.627 8.373,25 15,25 C21.627,25 27,19.627 27,13 C27,6.373 21.627,1 15,1 M15.3765,7 C15.9855,7 16.4815,7.495 16.4815,8.104 L16.4815,8.359 C16.7405,8.442 16.9925,8.546 17.2335,8.671 L17.4145,8.491 C17.8515,8.053 18.5525,8.065 18.9765,8.491 L19.5095,9.023 C19.9345,9.448 19.9475,10.148 19.5085,10.586 L19.3295,10.766 C19.4545,11.008 19.5585,11.26 19.6405,11.519 L19.8955,11.519 C20.5045,11.519 21.0015,12.014 21.0015,12.624 L21.0015,13.376 C21.0015,13.986 20.5045,14.481 19.8955,14.481 L19.6405,14.481 C19.5585,14.74 19.4545,14.992 19.3295,15.233 L19.5095,15.414 C19.9475,15.852 19.9345,16.552 19.5085,16.977 L18.9765,17.51 C18.5505,17.936 17.8505,17.946 17.4145,17.509 L17.2335,17.329 C16.9925,17.454 16.7405,17.559 16.4815,17.641 L16.4815,17.896 C16.4815,18.505 15.9855,19.001 15.3765,19.001 L14.6235,19.001 C14.0145,19.001 13.5185,18.505 13.5185,17.896 L13.5185,17.641 C13.2595,17.559 13.0075,17.454 12.7665,17.329 L12.5855,17.51 C12.1485,17.947 11.4475,17.935 11.0225,17.509 L10.4905,16.977 C10.0655,16.552 10.0535,15.852 10.4905,15.414 L10.6715,15.233 C10.5465,14.992 10.4415,14.74 10.3585,14.481 L10.1045,14.481 C9.4955,14.481 8.9995,13.986 8.9995,13.376 L8.9995,12.624 C8.9995,12.014 9.4955,11.519 10.1045,11.519 L10.3585,11.519 C10.4415,11.26 10.5465,11.008 10.6715,10.766 L10.4905,10.586 C10.0535,10.148 10.0655,9.448 10.4905,9.023 L11.0235,8.491 C11.4485,8.064 12.1495,8.054 12.5855,8.491 L12.7665,8.671 C13.0075,8.546 13.2595,8.442 13.5185,8.359 L13.5185,8.104 C13.5185,7.495 14.0145,7 14.6235,7 L15.3765,7 Z M15,11.0918 C13.948,11.0918 13.092,11.9478 13.092,12.9998 C13.092,14.0518 13.948,14.9078 15,14.9078 C16.052,14.9078 16.908,14.0518 16.908,12.9998 C16.908,11.9478 16.052,11.0918 15,11.0918 Z" id="Path"></path>
                </g>
            </g>
        </g>
    </g>
</svg>