<svg xmlns="http://www.w3.org/2000/svg" width="25" height="26" viewBox="0 0 25 26">
    <path fill="#FFF" d="M24.966 15.081c-.085-.172-.26-.28-.45-.28h-3.793V2.005h-8.446V4.51L8.894.182C8.797.067 8.654 0 8.504 0c-.15 0-.293.067-.39.182L.108 10.432c-.118.152-.141.357-.06.531.084.172.26.281.45.28h3.773v10.892h1V10.743c-.005-.275-.226-.496-.5-.501H1.5l7.005-8.938 7.005 8.938h-3.272c-.274.005-.495.226-.5.5v4.009H8.503c-.191 0-.366.108-.45.28-.082.174-.059.38.06.531l8.005 10.25c.095.119.239.188.39.188.152 0 .296-.069.39-.187l8.006-10.25c.1-.14.123-.322.06-.482z"/>
</svg>
