<?xml version="1.0" encoding="UTF-8"?>
<svg width="16px" height="19px" viewBox="0 0 16 19" version="1.1" xmlns="http://www.w3.org/2000/svg" xmlns:xlink="http://www.w3.org/1999/xlink">
    <title>Shape</title>
    <g id="Page-1" stroke="none" stroke-width="1" fill="none" fill-rule="evenodd">
        <g id="Slice" transform="translate(-84.000000, -179.000000)" fill="#FFFFFF" fill-rule="nonzero">
            <g id="Slice-34" transform="translate(84.000000, 179.000000)">
                <path d="M10.0869565,2.43478261 L8.34782609,2.43478261 L8.34782609,-1.0658141e-14 L7.65217391,-1.0658141e-14 L7.65217391,2.43478261 L5.91304348,2.43478261 C5.82142094,2.43476353 5.7336483,2.47162982 5.66951907,2.53706781 C5.60538983,2.60250581 5.57030406,2.69100524 5.57217391,2.7826087 L5.57217391,11.7008696 C5.57030406,11.792473 5.60538983,11.8809725 5.66951907,11.9464104 C5.7336483,12.0118484 5.82142094,12.0487147 5.91304348,12.0486957 L7.65217391,12.0486957 L7.65217391,14.9426087 L8.34782609,14.9426087 L8.34782609,12.0486957 L10.0869565,12.0486957 C10.1785791,12.0487147 10.2663517,12.0118484 10.3304809,11.9464104 C10.3946102,11.8809725 10.4296959,11.792473 10.4278261,11.7008696 L10.4278261,2.7826087 C10.4296959,2.69100524 10.3946102,2.60250581 10.3304809,2.53706781 C10.2663517,2.47162982 10.1785791,2.43476353 10.0869565,2.43478261 Z M2.75478261,3.47826087 L2.75478261,6.38608696 L4.47304348,6.38608696 C4.56466601,6.38606787 4.65243866,6.42293417 4.71656789,6.48837216 C4.78069712,6.55381015 4.81578289,6.64230959 4.81391304,6.73391304 L4.81391304,6.73391304 L4.81391304,14.8452174 C4.81398413,15.0346322 4.66242042,15.1892552 4.47304348,15.1930435 L4.47304348,15.1930435 L2.76173913,15.1930435 L2.76173913,18.0869565 L2.06608696,18.0869565 L2.06608696,15.1930435 L0.347826087,15.1930435 C0.155727044,15.1930435 0,15.0373164 0,14.8452174 L0,14.8452174 L0,6.73391304 C0,6.541814 0.155727044,6.38608696 0.347826087,6.38608696 L0.347826087,6.38608696 L2.05913043,6.38608696 L2.05913043,3.47826087 L2.75478261,3.47826087 Z M13.933913,2.70608696 L13.933913,4.86956522 L15.6521739,4.86956522 C15.8389682,4.86941572 15.9925283,5.01683342 16,5.20347826 L16,5.20347826 L16,13.9617391 C16,14.1538382 15.844273,14.3095652 15.6521739,14.3095652 L15.6521739,14.3095652 L13.9408696,14.3095652 L13.9408696,17.3008696 L13.2452174,17.3008696 L13.2452174,14.3095652 L11.5269565,14.3095652 C11.435334,14.3095843 11.3475613,14.272718 11.2834321,14.20728 C11.2193029,14.141842 11.1842171,14.0533426 11.186087,13.9617391 L11.186087,13.9617391 L11.186087,5.2173913 C11.1860159,5.02797648 11.3375796,4.87335351 11.5269565,4.86956522 L11.5269565,4.86956522 L13.2382609,4.86956522 L13.2382609,2.70608696 L13.933913,2.70608696 Z M9.71826087,3.13043478 L9.73913043,11.3530435 L6.28173913,11.3530435 L6.28173913,3.13043478 L9.71826087,3.13043478 Z" id="Shape"></path>
            </g>
        </g>
    </g>
</svg>