<svg xmlns="http://www.w3.org/2000/svg" width="23" height="26" viewBox="0 0 23 26">
    <path fill="#F2E205" d="M14.5 3.5H12V0h-1v3.5H8.5c-.132 0-.258.053-.35.147-.092.094-.143.221-.14.353v12.82c-.003.132.048.259.14.353.092.094.218.147.35.147H11v4.16h1v-4.16h2.5c.132 0 .258-.053.35-.147.092-.094.143-.221.14-.353V4c.003-.132-.048-.259-.14-.353-.092-.094-.218-.147-.35-.147zM3.96 5v4.18h2.47c.132 0 .258.053.35.147.092.094.143.221.14.353v11.66c0 .272-.218.495-.49.5H3.97V26h-1v-4.16H.5c-.276 0-.5-.224-.5-.5V9.68c0-.276.224-.5.5-.5h2.46V5h1zm16.07-1.11V7h2.47c.269 0 .49.212.5.48v12.59c0 .276-.224.5-.5.5h-2.46v4.3h-1v-4.3h-2.47c-.132 0-.258-.053-.35-.147-.092-.094-.143-.221-.14-.353V7.5c0-.272.218-.495.49-.5h2.46V3.89h1zm-6.06.61L14 16.32H9.03V4.5h4.94z"/>
</svg>
