<svg xmlns="http://www.w3.org/2000/svg" width="100" height="79" viewBox="0 0 100 79">
    <defs>
        <linearGradient id="prefix__a" x1="-64.521%" x2="256.474%" y1="50.246%" y2="50.246%">
            <stop offset="0%" stop-color="#36A9E1"/>
            <stop offset="100%" stop-color="#1D71B8"/>
        </linearGradient>
        <linearGradient id="prefix__b" x1="7.762%" x2="86.641%" y1="16.244%" y2="99.559%">
            <stop offset="0%" stop-color="#36A9E1"/>
            <stop offset="100%" stop-color="#1D71B8"/>
        </linearGradient>
        <linearGradient id="prefix__c" x1="15.188%" x2="109.125%" y1="-8.438%" y2="149%">
            <stop offset="0%" stop-color="#FCEE21"/>
            <stop offset="84%" stop-color="#FBB03B"/>
        </linearGradient>
        <linearGradient id="prefix__d" x1="35.25%" x2="67.75%" y1="11.5%" y2="99.5%">
            <stop offset="0%" stop-color="#36A9E1"/>
            <stop offset="100%" stop-color="#1D71B8"/>
        </linearGradient>
        <linearGradient id="prefix__e" x1="32.631%" x2="72.758%" y1="40.474%" y2="62.554%">
            <stop offset="0%" stop-color="#36A9E1"/>
            <stop offset="100%" stop-color="#1D71B8"/>
        </linearGradient>
        <linearGradient id="prefix__f" x1="20.244%" x2="84.06%" y1="36.882%" y2="65.076%">
            <stop offset="0%" stop-color="#36A9E1"/>
            <stop offset="100%" stop-color="#1D71B8"/>
        </linearGradient>
        <linearGradient id="prefix__g" x1="25.32%" x2="91.17%" y1="21.729%" y2="74.142%">
            <stop offset="0%" stop-color="#36A9E1"/>
            <stop offset="100%" stop-color="#1D71B8"/>
        </linearGradient>
        <linearGradient id="prefix__h" x1="-.04%" x2="318.957%" y1="50.061%" y2="50.061%">
            <stop offset="0%" stop-color="#36A9E1"/>
            <stop offset="100%" stop-color="#1D71B8"/>
        </linearGradient>
        <linearGradient id="prefix__i" x1="32.558%" x2="98.806%" y1="21.217%" y2="92.222%">
            <stop offset="0%" stop-color="#FCEE21"/>
            <stop offset="84%" stop-color="#FBB03B"/>
        </linearGradient>
    </defs>
    <g fill="none">
        <path fill="url(#prefix__a)" d="M67.378 31.511L56.267 42.622c-2.14 2.229-2.104 5.758.079 7.944 2.182 2.185 5.711 2.225 7.943.09l3.1-3.1-.011-16.045z"/>
        <path fill="url(#prefix__b)" d="M98.333 42.633L80.156 24.456c-1.065-1.066-2.51-1.665-4.017-1.665-1.507 0-2.952.599-4.017 1.665-1.566 1.577-1.3 3.11-1.3 5.81v22.79c.01 1.964-.764 3.852-2.148 5.246-1.383 1.394-3.265 2.181-5.23 2.187H25.056c-1.965-.006-3.847-.793-5.23-2.187-1.384-1.394-2.157-3.282-2.148-5.246V25.278c-.006-1.963.768-3.847 2.151-5.24 1.384-1.391 3.264-2.177 5.227-2.182h25.633c.31.016.622.016.933 0 4.91 0 8.89-3.98 8.89-8.89 0-4.909-3.98-8.888-8.89-8.888H25.056c-6.66.014-13.042 2.674-17.74 7.394-4.7 4.72-7.33 11.113-7.316 17.772v27.778c0 13.847 11.209 25.08 25.056 25.111H63.4c13.847-.03 25.056-11.264 25.056-25.11V48.81l1.855 1.856c2.232 2.135 5.76 2.095 7.943-.09 2.183-2.186 2.218-5.715.08-7.944z"/>
        <path fill="url(#prefix__c)" d="M85.711 8.989c0 4.91-3.98 8.889-8.889 8.889-4.909 0-8.889-3.98-8.889-8.89 0-4.908 3.98-8.888 8.89-8.888 4.908 0 8.888 3.98 8.888 8.889z"/>
        <path fill="url(#prefix__d)" d="M70.822 28.089v2.222-2.222z"/>
        <path fill="url(#prefix__e)" d="M51.622 15.656c-.31.016-.622.016-.933 0H25.056c-1.963.005-3.843.79-5.227 2.183-1.383 1.392-2.157 3.276-2.151 5.239V25.3c-.006-1.963.768-3.847 2.151-5.24 1.384-1.391 3.264-2.176 5.227-2.182h25.633c.31.016.622.016.933 0 2.558.023 5-1.066 6.692-2.986 1.691-1.92 2.465-4.48 2.12-7.014-.56 4.441-4.335 7.773-8.812 7.778z"/>
        <path fill="url(#prefix__f)" d="M83.644 67.833c-4.588 4.99-12.966 8.123-20.244 8.123H25.056C11.209 75.925 0 64.69 0 50.844v2.223c0 13.846 11.209 25.08 25.056 25.11H63.4c8.013-.005 15.539-3.847 20.244-10.333v-.01z"/>
        <path fill="url(#prefix__g)" d="M98.333 48.456c-1.061 1.068-2.505 1.668-4.01 1.668-1.507 0-2.95-.6-4.012-1.668L88.456 46.6v2.222l1.855 1.856c1.77 1.763 4.483 2.162 6.685.985 2.203-1.178 3.377-3.657 2.893-6.107-.214 1.101-.756 2.112-1.556 2.9z"/>
        <path fill="url(#prefix__h)" d="M56.256 48.867c-.847-.841-1.4-1.932-1.578-3.111-.392 2.426.825 4.828 3.013 5.947 2.188 1.12 4.848.701 6.587-1.036l3.1-3.1v-1.811l-3.1 3.11c-2.217 2.213-5.806 2.213-8.022 0z"/>
        <path fill="url(#prefix__i)" d="M85.267 6.344c.48 4.517-2.522 8.67-6.962 9.63-4.44.959-8.889-1.584-10.316-5.896.682 4.564 4.743 7.846 9.349 7.557 4.605-.29 8.223-4.055 8.329-8.668.002-.89-.133-1.774-.4-2.623z" opacity=".6" style="mix-blend-mode:multiply"/>
    </g>
</svg>
