<?xml version="1.0" encoding="UTF-8"?>
<svg width="24px" height="24px" viewBox="0 0 24 24" version="1.1" xmlns="http://www.w3.org/2000/svg" xmlns:xlink="http://www.w3.org/1999/xlink">
    <title>Slice 20</title>
    <g id="Slice" stroke="none" stroke-width="1" fill="none" fill-rule="evenodd">
        <g transform="translate(-243.000000, -55.000000)" fill="#F2E205" id="Slice-20">
            <g transform="translate(240.000000, 54.000000)">
                <g id="Graphics-/-Tab-Bar-Icons-/-Yellow-/-Trend">
                    <path d="M15,23.5 C9.201,23.5 4.5,18.799 4.5,13 C4.5,7.201 9.201,2.5 15,2.5 C20.799,2.5 25.5,7.201 25.5,13 C25.5,18.799 20.799,23.5 15,23.5 M15,1 C8.373,1 3,6.373 3,13 C3,19.627 8.373,25 15,25 C21.627,25 27,19.627 27,13 C27,6.373 21.627,1 15,1 M21.001,11.2222 L21.001,13.7562 C21.001,14.1242 20.702,14.4232 20.334,14.4232 C19.966,14.4232 19.667,14.1242 19.667,13.7562 L19.667,12.8312 L17.249,15.2492 C16.989,15.5102 16.566,15.5102 16.307,15.2492 L13.222,12.1652 L10.138,15.2492 C9.877,15.5102 9.455,15.5102 9.195,15.2492 C8.934,14.9892 8.934,14.5662 9.195,14.3062 L12.751,10.7502 C13.011,10.4902 13.433,10.4902 13.693,10.7502 L16.778,13.8352 L18.725,11.8892 L17.8,11.8892 C17.432,11.8892 17.134,11.5902 17.134,11.2222 C17.134,10.8542 17.432,10.5552 17.8,10.5552 L20.334,10.5552 C20.708,10.5552 21.001,10.8622 21.001,11.2222" id="Path"></path>
                </g>
            </g>
        </g>
    </g>
</svg>