<?xml version="1.0" encoding="UTF-8"?>
<svg width="24px" height="24px" viewBox="0 0 24 24" version="1.1" xmlns="http://www.w3.org/2000/svg" xmlns:xlink="http://www.w3.org/1999/xlink">
    <title>Group 2</title>
    <g id="Page-1" stroke="none" stroke-width="1" fill="none" fill-rule="evenodd">
        <g id="Slice" transform="translate(-240.000000, -55.000000)">
            <rect fill="#21212B" x="0" y="0" width="484" height="209"></rect>
            <g id="Group-2" transform="translate(240.000000, 55.000000)" fill="#FFFFFF">
                <path d="M12,0 C5.373,0 0,5.373 0,12 C0,18.627 5.373,24 12,24 C18.627,24 24,18.627 24,12 C24,5.373 18.627,0 12,0 M12,22.5 C6.201,22.5 1.5,17.799 1.5,12 C1.5,6.201 6.201,1.5 12,1.5 C17.799,1.5 22.5,6.201 22.5,12 C22.5,17.799 17.799,22.5 12,22.5" id="Fill"></path>
                <path d="M16.7109375,11.25 L16.7109375,12.2109375 L15.9140625,12.2109375 L15.9140625,11.625 C15.9140625,10.9267031 15.525375,10.3176563 14.953125,10.0023047 L14.953125,10.0021875 C13.7217891,9.32632031 12.2109375,10.22025 12.2109375,11.625 L12.2109375,12.2109375 L11.5078125,12.2109375 L11.5078125,11.625 C11.5078125,9.84121875 13.2953906,8.61152344 14.953125,9.23039063 L14.953125,6 L6,6 L6,14.2260938 L10.7301563,14.2324219 C10.8967969,15.7975781 12.1450781,17.0439844 13.7109375,17.2080469 L13.7109375,18 L14.4140625,18 L14.4140625,17.2080469 C16.0361719,17.038125 17.3175,15.7066406 17.4086719,14.0625 C17.4170625,14.0625 17.4140625,14.278875 17.4140625,11.25 L16.7109375,11.25 Z M7.5,7.5234375 L13.5,7.5234375 L13.5,8.2265625 L7.5,8.2265625 L7.5,7.5234375 Z M7.5,9.0234375 L11.1328125,9.0234375 L11.1328125,9.7265625 L7.5,9.7265625 L7.5,9.0234375 Z M9.9375,12.7265625 L7.5,12.7265625 L7.5,12.0234375 L9.9375,12.0234375 L9.9375,12.7265625 Z M9.9375,11.2265625 L7.5,11.2265625 L7.5,10.5234375 L9.9375,10.5234375 L9.9375,11.2265625 Z M16.7109375,13.875 C16.7109375,15.3353906 15.5228906,16.5234375 14.0625,16.5234375 C12.72375,16.5234375 11.61375,15.525 11.4384375,14.2333594 C11.4061641,13.9994297 11.4140625,13.9321172 11.4140625,12.9140625 L12.2109375,12.9140625 C12.2109375,13.2159375 12.1999219,14.2345312 12.2462578,14.2345312 C12.4141172,15.0839531 13.1645625,15.7265625 14.0625,15.7265625 C15.0834609,15.7265625 15.9140625,14.8959609 15.9140625,13.875 L15.9140625,12.9140625 L16.7109375,12.9140625 L16.7109375,13.875 Z" id="Shape" fill-rule="nonzero"></path>
            </g>
        </g>
    </g>
</svg>