<?xml version="1.0" encoding="UTF-8"?>
<svg width="24px" height="24px" viewBox="0 0 24 24" version="1.1" xmlns="http://www.w3.org/2000/svg" xmlns:xlink="http://www.w3.org/1999/xlink">
    <title>Slice 19</title>
    <g id="Page-1" stroke="none" stroke-width="1" fill="none" fill-rule="evenodd">
        <g id="Slice" transform="translate(-209.000000, -55.000000)" fill="#FFFFFF">
            <g id="Path" transform="translate(206.000000, 54.000000)">
                <path d="M15,23.5 C9.201,23.5 4.5,18.799 4.5,13 C4.5,7.201 9.201,2.5 15,2.5 C20.799,2.5 25.5,7.201 25.5,13 C25.5,18.799 20.799,23.5 15,23.5 M15,1 C8.373,1 3,6.373 3,13 C3,19.627 8.373,25 15,25 C21.627,25 27,19.627 27,13 C27,6.373 21.627,1 15,1 M20.9686949,11.534656 C20.8901408,11.2811012 20.6746206,11.1010143 20.4196402,11.0770345 L16.9561186,10.7488655 L15.586549,7.40383419 C15.485564,7.15868668 15.2555781,7 15.0000484,7 C14.7445186,7 14.5145328,7.15868668 14.4135477,7.40440743 L13.0439781,10.7488655 L9.57990718,11.0770345 C9.32538456,11.1015875 9.11041369,11.2811012 9.03140181,11.534656 C8.95238994,11.7882107 9.02535918,12.0663185 9.21789912,12.2416286 L11.8359113,14.6375014 L11.0639204,18.1860261 C11.0074311,18.4469373 11.1044792,18.7166378 11.3119426,18.8731271 C11.4234565,18.9571995 11.5539222,19 11.6854866,19 C11.7989231,19 11.9114441,18.9680907 12.0124291,18.9050364 L15.0000484,17.0417814 L17.9865689,18.9050364 C18.2051105,19.0422273 18.4805991,19.029712 18.6876047,18.8731271 C18.8951597,18.71616 18.9921163,18.446364 18.9356269,18.1860261 L18.1636361,14.6375014 L20.7816482,12.2421063 C20.9741882,12.0663185 21.0477068,11.7886884 20.9686949,11.534656 Z"></path>
            </g>
        </g>
    </g>
</svg>