<svg xmlns="http://www.w3.org/2000/svg" width="26" height="26" viewBox="0 0 26 26">
    <path fill="#FFF" d="M25.388 9.97l-2-.428c-.172-.535-.386-1.055-.64-1.556l1.1-1.714c.219-.311.176-.735-.1-.997l-3.11-3.03c-.262-.276-.687-.318-1-.1l-1.64 1.096c-.502-.253-1.023-.467-1.56-.638L15.999.61c-.078-.373-.418-.632-.8-.609H10.8c-.38-.023-.721.236-.8.609l-.43 1.993c-.536.171-1.057.385-1.56.638L6.33 2.145c-.312-.218-.737-.176-1 .1l-3.08 3.1c-.275.261-.318.685-.1.997l1.1 1.714c-.253.5-.467 1.02-.64 1.555L.61 10.04c-.347.073-.6.374-.61.728v4.386c-.003.365.252.682.61.758l2 .428c.169.552.383 1.088.64 1.605l-1.1 1.715c-.219.311-.176.735.1.997l3.11 3.1c.262.275.687.318 1 .1l1.72-1.097c.502.254 1.023.467 1.56.638l.43 1.994c.075.357.393.611.76.608h4.399c.366.003.684-.251.76-.608l.43-1.994c.545-.196 1.073-.436 1.58-.718l1.72 1.097c.312.218.737.176 1-.1l3.11-3.1c.275-.262.318-.686.1-.997l-1.18-1.635c.253-.5.467-1.02.64-1.555l1.999-.429c.377-.078.638-.424.61-.807v-4.386c.023-.38-.237-.72-.61-.798zm-6.39 2.99c0 3.304-2.686 5.982-5.999 5.982-3.313 0-6-2.678-6-5.981C7 9.657 9.686 6.98 13 6.98s6 2.677 6 5.98z"/>
</svg>
