<?xml version="1.0" encoding="UTF-8"?>
<svg width="24px" height="24px" viewBox="0 0 24 24" version="1.1" xmlns="http://www.w3.org/2000/svg" xmlns:xlink="http://www.w3.org/1999/xlink">
    <title>Path</title>
    <g id="Page-1" stroke="none" stroke-width="1" fill="none" fill-rule="evenodd">
        <g id="Slice" transform="translate(-460.000000, -55.000000)" fill="#F2E205">
            <g id="Slice-27" transform="translate(460.000000, 55.000000)">
                <path d="M12,22.5 C6.201,22.5 1.5,17.799 1.5,12 C1.5,6.201 6.201,1.5 12,1.5 C17.799,1.5 22.5,6.201 22.5,12 C22.5,17.799 17.799,22.5 12,22.5 M12,0 C5.373,0 0,5.373 0,12 C0,18.627 5.373,24 12,24 C18.627,24 24,18.627 24,12 C24,5.373 18.627,0 12,0 M7.20000844,6 L7.20000844,16.2000014 C7.20000844,16.5313699 7.4686301,16.7999916 7.79999859,16.7999916 L7.79999859,16.7999916 L18,16.7999916 L18,18 L7.79999859,18 C6.80589312,18 6,17.1941069 6,16.2000014 L6,16.2000014 L6,6 L7.20000844,6 Z M17.0321144,7.84615385 L18,8.49314878 L13.9697759,15.1112227 L11.8283133,12.3688878 L9.76636632,16.1538462 L8.76923077,15.5575418 L11.6592178,10.2526852 L13.8545521,13.0640359 L17.0321144,7.84615385 Z" id="Path"></path>
            </g>
        </g>
    </g>
</svg>