<svg xmlns="http://www.w3.org/2000/svg" width="25" height="26" viewBox="0 0 25 26">
    <g fill="none" fill-rule="evenodd">
        <path fill="#F2F2F7" d="M0 0H375V170H0z" transform="translate(-106 -89)"/>
        <path fill="#FFF" fill-rule="nonzero" d="M130.966 104.081c-.085-.172-.26-.28-.45-.28h-3.793V91.005h-8.446v2.505l-3.383-4.328c-.097-.115-.24-.182-.39-.182-.15 0-.293.067-.39.182l-8.006 10.25c-.118.152-.141.357-.06.531.084.172.26.281.45.28h3.773v10.892h1V99.743c-.005-.275-.226-.496-.5-.501H107.5l7.005-8.938 7.005 8.938h-3.272c-.274.005-.495.226-.5.5v4.009h-3.233c-.191 0-.366.108-.45.28-.082.174-.059.38.06.531l8.005 10.25c.095.119.239.188.39.188.152 0 .296-.069.39-.187l8.006-10.25c.1-.14.123-.322.06-.482z" transform="translate(-106 -89)"/>
    </g>
</svg>
