<?xml version="1.0" encoding="UTF-8"?>
<svg width="24px" height="24px" viewBox="0 0 24 24" version="1.1" xmlns="http://www.w3.org/2000/svg" xmlns:xlink="http://www.w3.org/1999/xlink">
    <title>Slice 17</title>
    <g id="Slice" stroke="none" stroke-width="1" fill="none" fill-rule="evenodd">
        <g transform="translate(-141.000000, -55.000000)" fill="#FFFFFF" id="Slice-17">
            <g transform="translate(138.000000, 54.000000)">
                <g id="Graphics-/-Tab-Bar-Icons-/-White-/--History">
                    <path d="M15,1 C21.627,1 27,6.373 27,13 C27,19.627 21.627,25 15,25 C8.373,25 3,19.627 3,13 C3,6.373 8.373,1 15,1 Z M15,2.5 C9.201,2.5 4.5,7.201 4.5,13 C4.5,18.799 9.201,23.5 15,23.5 C20.799,23.5 25.5,18.799 25.5,13 C25.5,7.201 20.799,2.5 15,2.5 Z M16.3085529,7 L16.3085529,12.3911013 L17.3244826,11.3430376 L18.3395883,12.3861576 L18.3395883,7 L19.877078,7 C20.2728484,7.00906344 20.5945377,7.30891239 20.6416369,7.69201599 L20.6475234,7.79840703 L20.6475234,18.201593 C20.6520069,18.5981186 20.363672,18.9309485 19.983028,18.9906476 L19.877078,19 L12.801,19 L12.801,7 L16.3085529,7 Z M11.5185389,7 L11.5185389,19 L10,19 L10,7 L11.5185389,7 Z" id="Fill"></path>
                </g>
            </g>
        </g>
    </g>
</svg>